:SAMPLES-PER-SECOND 30
:FULLY-SPECIFIED
:DEGREES
115
root  6.72203 36.9503 -4.12658 10.9323 -52.8023 0.531293
RightUpLeg  -41.7341 -4.5452 6.85046
RightLeg  49.4804 -23.1721 -26.4813
RightFoot  -6.68067 -0.352867 7.44095
RightToes  5.82063e-011 0 -3.6325e-017
Spine  41.9307 -1.38595 10.0724
Spine1  -16.2563 2.66613 -12.6742
HEad  -50.2258 -19.5651 4.04777
LeftShoulder1  -0.0900132 0.358337 12.937
LeftArm  78.9769 -74.7915 -166.068
LeftForeArm  147.864 -75.4961 -138.896
LeftHand  -0.897595 1.80268 28.7323
RightShoulder  0.642046 -7.43137 -27.9656
RightArm  -127.276 63.4581 -73.5423
RightForeArm  0.588277 -5.77022 -0.166694
RightHand  0.144423 -7.48087 -9.57535
LeftUpLeg  -45.9901 -18.7275 6.89967
LeftLeg  43.3387 6.00616 6.4388
LeftFoot  -3.40648 0.409429 -5.73053
LeftToes  -1.1369e-010 2.7689e-011 -1.90827e-011
116
root  6.88227 35.8524 -3.89663 10.0627 -54.7439 -0.0432875
RightUpLeg  -43.0722 -4.02411 7.24419
RightLeg  54.6539 -19.9739 -27.6657
RightFoot  -11.2423 -0.0834232 6.61978
RightToes  5.82063e-011 0 -3.6325e-017
Spine  42.8758 -1.31946 10.6772
Spine1  -16.9228 2.89795 -12.378
HEad  -50.1744 -19.2458 3.15839
LeftShoulder1  -0.102163 -0.25989 12.7683
LeftArm  77.5517 -76.0581 -164.583
LeftForeArm  148.481 -75.3647 -139.395
LeftHand  -0.902608 1.76361 28.5847
RightShoulder  0.800294 -8.09141 -29.1672
RightArm  -127.605 61.6953 -74.6638
RightForeArm  -1.41376 -5.63822 -0.781892
RightHand  0.144681 -7.52202 -9.42895
LeftUpLeg  -47.2364 -17.4943 6.56698
LeftLeg  49.5912 4.67867 6.32596
LeftFoot  -9.23039 0.203828 -7.78436
LeftToes  -1.1369e-010 2.7689e-011 -1.90827e-011
117
root  7.07212 34.6168 -3.63602 8.79618 -56.9584 -0.670555
RightUpLeg  -44.8716 -3.56366 7.40858
RightLeg  60.4388 -15.9202 -28.052
RightFoot  -15.0982 0.098688 6.05207
RightToes  5.82063e-011 0 -3.6325e-017
Spine  43.823 -1.40732 10.6711
Spine1  -16.5579 3.09638 -11.7857
HEad  -50.0554 -17.8512 2.43319
LeftShoulder1  -0.106553 -0.598303 12.6241
LeftArm  74.6197 -77.2444 -161.293
LeftForeArm  148.874 -75.335 -139.556
LeftHand  -0.862596 1.90788 28.4536
RightShoulder  0.628087 -7.16809 -28.7135
RightArm  -131.601 62.2429 -77.2852
RightForeArm  0.847037 -5.66695 -0.770528
RightHand  0.113632 -7.00932 -10.0297
LeftUpLeg  -48.371 -15.9321 5.67413
LeftLeg  56.5594 3.99074 7.02799
LeftFoot  -14.4806 -0.129364 -8.0654
LeftToes  -1.1369e-010 2.7689e-011 -1.90827e-011
118
root  7.27068 33.4582 -3.30898 7.08863 -59.5559 -0.842359
RightUpLeg  -46.6251 -3.32301 7.13073
RightLeg  66.3372 -12.0283 -28.1206
RightFoot  -17.661 0.228266 6.29266
RightToes  5.82063e-011 0 -3.6325e-017
Spine  44.1372 -1.72484 10.4053
Spine1  -14.3926 3.18267 -11.687
HEad  -50.364 -16.3923 2.33481
LeftShoulder1  -0.102675 -0.448039 12.6195
LeftArm  70.9695 -77.2746 -157.115
LeftForeArm  148.699 -75.479 -139.112
LeftHand  -0.845711 1.9595 28.3199
RightShoulder  0.315896 -5.48355 -27.1892
RightArm  -138.33 65.2101 -80.6448
RightForeArm  5.72969 -5.82077 -0.145522
RightHand  0.0800315 -6.46803 -11.0637
LeftUpLeg  -49.3548 -14.4788 4.28455
LeftLeg  63.1702 3.64102 8.47355
LeftFoot  -18.1891 -0.341644 -7.50147
LeftToes  -1.1369e-010 2.7689e-011 -1.90827e-011
119
root  7.48682 32.7252 -2.93081 5.17398 -62.587 -0.618436
RightUpLeg  -47.1378 -2.93364 6.45373
RightLeg  69.9089 -9.22512 -26.7293
RightFoot  -19.1475 0.30934 6.4437
RightToes  5.82063e-011 0 -3.6325e-017
Spine  43.5045 -2.1069 10.441
Spine1  -11.1883 3.28329 -12.4879
HEad  -51.0485 -16.3179 2.94991
LeftShoulder1  -0.100375 -0.435524 12.5776
LeftArm  66.3009 -75.9439 -151.378
LeftForeArm  147.892 -75.8287 -137.915
LeftHand  -0.913252 1.58824 27.6297
RightShoulder  -0.00740252 -3.39434 -25.3703
RightArm  -146.783 71.0881 -83.7143
RightForeArm  12.0829 -6.04057 0.953917
RightHand  0.0922566 -6.47022 -12.1542
LeftUpLeg  -49.3165 -13.2868 2.78603
LeftLeg  67.4977 3.75606 10.694
LeftFoot  -19.9157 -0.44942 -7.57286
LeftToes  -1.1369e-010 2.7689e-011 -1.90827e-011
120
root  7.72786 32.6431 -2.54769 3.40396 -65.9941 -0.0576054
RightUpLeg  -46.245 -2.00984 5.48113
RightLeg  70.0069 -8.07372 -24.0459
RightFoot  -19.4187 0.286364 5.91176
RightToes  5.82063e-011 0 -3.6325e-017
Spine  42.4446 -2.35711 10.741
Spine1  -7.91615 3.62751 -14.0897
HEad  -52.08 -17.748 4.33608
LeftShoulder1  -0.107324 -0.492712 12.7306
LeftArm  63.9444 -73.8908 -147.398
LeftForeArm  146.491 -76.384 -135.847
LeftHand  -0.989274 1.05211 26.2605
RightShoulder  -0.261745 -1.20325 -23.0818
RightArm  -157.891 79.1756 -88.5705
RightForeArm  18.7958 -6.27511 2.3527
RightHand  0.163741 -7.08033 -12.7786
LeftUpLeg  -47.8766 -12.1902 1.47186
LeftLeg  68.3452 4.61901 13.443
LeftFoot  -19.91 -0.487237 -8.08863
LeftToes  -1.1369e-010 2.7689e-011 -1.90827e-011
121
root  7.95968 33.17 -2.17059 1.91622 -69.5518 0.99212
RightUpLeg  -44.5356 -0.733853 4.35655
RightLeg  67.1254 -8.29393 -21.2862
RightFoot  -18.1176 0.172708 4.96946
RightToes  5.82063e-011 0 -3.6325e-017
Spine  41.5527 -2.25113 10.6644
Spine1  -6.19654 4.07556 -15.7031
HEad  -52.4964 -19.5479 6.04054
LeftShoulder1  -0.130212 -0.911329 13.0342
LeftArm  63.5909 -72.3499 -144.966
LeftForeArm  143.932 -77.1427 -132.543
LeftHand  -0.998389 0.808076 25.1288
RightShoulder  -0.429905 1.41666 -19.8802
RightArm  168.429 88.0116 -116.494
RightForeArm  24.7807 -6.48846 3.82495
RightHand  0.259612 -7.95478 -12.8654
LeftUpLeg  -45.4206 -11.212 0.399175
LeftLeg  65.8867 6.29478 15.7625
LeftFoot  -18.8422 -0.435228 -8.34869
LeftToes  -1.1369e-010 2.7689e-011 -1.90827e-011
122
root  8.12158 34.0754 -1.77049 0.964357 -73.0556 2.13271
RightUpLeg  -42.2879 0.453735 3.39653
RightLeg  62.2059 -9.14174 -18.6656
RightFoot  -15.8183 0.0436719 3.83929
RightToes  5.82063e-011 0 -3.6325e-017
Spine  40.4608 -1.81825 9.95806
Spine1  -5.71761 4.31275 -16.275
HEad  -51.7686 -20.6281 7.45979
LeftShoulder1  -0.145313 -1.1701 13.2211
LeftArm  64.6231 -71.7996 -144.232
LeftForeArm  140.119 -77.9046 -128.407
LeftHand  -0.988725 0.812445 24.9176
RightShoulder  -0.432319 3.87879 -16.4039
RightArm  20.7796 83.582 99.9334
RightForeArm  28.8836 -6.65687 5.08253
RightHand  0.337911 -8.69188 -12.8144
LeftUpLeg  -42.4334 -10.6032 -0.346445
LeftLeg  61.3625 8.72305 17.3627
LeftFoot  -17.1875 -0.335123 -8.58347
LeftToes  -1.1369e-010 2.7689e-011 -1.90827e-011
123
root  8.19202 35.0647 -1.33161 1.28196 -76.5691 2.14624
RightUpLeg  -39.5842 1.55145 2.93164
RightLeg  56.2139 -9.85136 -15.8156
RightFoot  -13.5666 -0.0376335 2.82999
RightToes  5.82063e-011 0 -3.6325e-017
Spine  38.7682 -1.20852 8.9982
Spine1  -5.36725 4.3326 -15.3527
HEad  -49.7535 -21.1069 8.30065
LeftShoulder1  -0.127521 -0.69073 13.1366
LeftArm  66.0957 -71.7801 -145.071
LeftForeArm  136.507 -78.355 -125.241
LeftHand  -1.00845 0.750273 25.0725
RightShoulder  -0.347533 5.11982 -14.3057
RightArm  12.9932 78.6113 93.8094
RightForeArm  30.6782 -6.78917 6.02061
RightHand  0.378341 -9.17605 -12.4801
LeftUpLeg  -39.3093 -10.2734 -0.616556
LeftLeg  56.5515 11.987 19.1973
LeftFoot  -15.1065 -0.194234 -8.5964
LeftToes  -1.1369e-010 2.7689e-011 -1.90827e-011
124
root  8.2307 35.8937 -0.889026 2.73289 -80.0853 1.07826
RightUpLeg  -37.2705 2.58065 2.79368
RightLeg  50.6314 -10.276 -13.4529
RightFoot  -11.5737 -0.0743948 2.53879
RightToes  5.82063e-011 0 -3.6325e-017
Spine  37.1902 -0.506814 7.88657
Spine1  -6.1627 4.18362 -13.5494
HEad  -45.6185 -21.9499 8.40691
LeftShoulder1  -0.110633 -0.441749 12.8714
LeftArm  65.1242 -71.7972 -144.289
LeftForeArm  134.82 -78.3937 -124.544
LeftHand  -1.01037 0.718881 24.9535
RightShoulder  -0.341905 5.30206 -14.1544
RightArm  10.0157 77.376 90.24
RightForeArm  30.4635 -6.87546 6.52886
RightHand  0.375791 -9.41835 -11.7039
LeftUpLeg  -36.7777 -9.88686 -0.605156
LeftLeg  52.6017 15.367 20.8673
LeftFoot  -13.1055 -0.036127 -7.33121
LeftToes  -1.1369e-010 2.7689e-011 -1.90827e-011
125
root  8.33618 36.4416 -0.482122 2.63295 -83.2081 2.00847
RightUpLeg  -36.6562 2.92175 2.54993
RightLeg  46.9822 -10.9273 -12.5731
RightFoot  -9.43903 -0.112873 2.91257
RightToes  5.82063e-011 0 -3.6325e-017
Spine  36.419 -0.0507691 6.51926
Spine1  -8.84366 3.70373 -11.8938
HEad  -39.8904 -23.2051 8.04889
LeftShoulder1  -0.11244 -0.551434 12.8261
LeftArm  63.9288 -71.7391 -143.449
LeftForeArm  135.34 -78.1728 -125.82
LeftHand  -0.967082 0.899636 24.8466
RightShoulder  -0.415661 4.43745 -15.7476
RightArm  8.61126 80.0076 87.0506
RightForeArm  28.1824 -6.86348 6.28736
RightHand  0.346913 -9.22865 -11.4199
LeftUpLeg  -35.7131 -9.67191 -0.687679
LeftLeg  49.2176 16.4512 19.8309
LeftFoot  -12.3248 0.029329 -5.49987
LeftToes  -1.1369e-010 2.7689e-011 -1.90827e-011
126
root  8.55937 36.6516 -0.102275 -3.25345 -85.5003 9.29387
RightUpLeg  -38.1472 2.31858 2.08635
RightLeg  45.8163 -11.839 -13.0341
RightFoot  -7.55804 -0.164706 3.42163
RightToes  5.82063e-011 0 -3.6325e-017
Spine  36.4288 -0.190223 5.38453
Spine1  -12.1295 2.89921 -11.0454
HEad  -35.345 -24.122 8.20701
LeftShoulder1  -0.119632 -0.159642 13.4279
LeftArm  68.0549 -71.7533 -148.227
LeftForeArm  137.359 -77.8748 -127.806
LeftHand  -0.964295 0.948722 25.039
RightShoulder  -0.427354 1.99362 -18.7926
RightArm  7.1798 86.3898 83.006
RightForeArm  23.3176 -6.73125 5.21718
RightHand  0.293523 -8.404 -12.38
LeftUpLeg  -36.5202 -10.2275 -0.908161
LeftLeg  46.4272 13.5644 15.1988
LeftFoot  -13.3606 -0.0203397 -5.49336
LeftToes  -1.1369e-010 2.7689e-011 -1.90827e-011
